<svg id="Layer_1" data-name="Layer 1" xmlns="http://www.w3.org/2000/svg" viewBox="0 0 440.61 109.59"><defs><style>.cls-1{fill:#a4d6d6;}.cls-2{fill:#251c37;}</style></defs><title>WYGD Logo RGB</title><path class="cls-1" d="M5.51,48.59l64-22.82V90.93h-64ZM0,44.7V96.44H75V17.95Z"/><path class="cls-1" d="M58.81,7.81l64,22.82V73h-64ZM53.3,0V78.49h75V26.75Z"/><path class="cls-1" d="M27.58,62.55h73.17v41.53H27.58Zm-5.51,47h84.19V57H22.07Z"/><polygon class="cls-2" points="165.45 39.15 169.51 39.15 175.71 57.45 181.82 39.15 185.88 39.15 192.04 57.45 198.15 39.15 202.17 39.15 194 61.3 189.94 61.3 183.83 43.88 177.72 61.3 173.66 61.3 165.45 39.15"/><path class="cls-2" d="M219.75,48.74a6.42,6.42,0,0,0-6.87-6.49A7,7,0,0,0,208,44a7.38,7.38,0,0,0-2.32,4.73Zm.88-6.68q2.64,3,2.64,8.44,0,.84,0,1.26h-17.5a7.54,7.54,0,0,0,2.49,4.73,7.38,7.38,0,0,0,5,1.76,9.37,9.37,0,0,0,3.66-.71,8.81,8.81,0,0,0,3-2L222,57.74A11.19,11.19,0,0,1,218,60.46a13.1,13.1,0,0,1-5.11,1,11.77,11.77,0,0,1-5.8-1.4,9.84,9.84,0,0,1-3.94-4,12.74,12.74,0,0,1,0-11.62,10.21,10.21,0,0,1,3.92-4A11.3,11.3,0,0,1,212.84,39q5.15,0,7.79,3"/><path class="cls-2" d="M236.43,42.71a10.89,10.89,0,0,0-3.16-.5,5.39,5.39,0,0,0-2.83.65,2.17,2.17,0,0,0-1.07,2,2.21,2.21,0,0,0,1.19,2,17.3,17.3,0,0,0,3.62,1.4A28.49,28.49,0,0,1,238,49.62a6.69,6.69,0,0,1,2.49,2,6.1,6.1,0,0,1-1.34,8.21,10.12,10.12,0,0,1-5.88,1.63,14.68,14.68,0,0,1-4.79-.8,10.88,10.88,0,0,1-3.91-2.26L226,55.52a10.34,10.34,0,0,0,3.41,2,11.33,11.33,0,0,0,4,.75,5.91,5.91,0,0,0,3.1-.71,2.37,2.37,0,0,0,1.17-2.18,2.48,2.48,0,0,0-1.23-2.26,16.83,16.83,0,0,0-3.75-1.51A24.9,24.9,0,0,1,229,50.35a6.41,6.41,0,0,1-2.39-1.9,5.14,5.14,0,0,1-1-3.27,5.26,5.26,0,0,1,2.26-4.65A9.78,9.78,0,0,1,233.56,39a14.14,14.14,0,0,1,4,.57,11.91,11.91,0,0,1,3.37,1.53l-1.42,3a13.26,13.26,0,0,0-3-1.34"/><path class="cls-2" d="M257.67,59.83a9.54,9.54,0,0,1-5.19,1.63,5.9,5.9,0,0,1-4.27-1.57,6.3,6.3,0,0,1-1.63-4.75V42.88h-3.14v-3h3.14V34h3.94V39.9h6.78v3h-6.78V54.43a4.1,4.1,0,0,0,.67,2.64,2.48,2.48,0,0,0,2,.8,7,7,0,0,0,3.43-1Z"/><path class="cls-2" d="M276.69,68.29a6.63,6.63,0,0,1-4.08,1.3,7.29,7.29,0,0,1-4.86-1.72l1.68-3.06a5.08,5.08,0,0,0,3,1q2.51,0,3.77-2.85l.84-2-9.17-21.9h4.1l7,17.75,6.66-17.75h4L279.48,64.44a8.86,8.86,0,0,1-2.78,3.85"/><path class="cls-2" d="M297.42,43.42a7,7,0,0,0-2.64,2.79,8.5,8.5,0,0,0-.94,4,8.72,8.72,0,0,0,.94,4.1,6.77,6.77,0,0,0,2.64,2.78,8,8,0,0,0,7.7,0,6.76,6.76,0,0,0,2.64-2.78,8.72,8.72,0,0,0,.94-4.1,8.5,8.5,0,0,0-.94-4,7,7,0,0,0-2.64-2.79,7.89,7.89,0,0,0-7.7,0m9.76-3a10.25,10.25,0,0,1,4,4,12.4,12.4,0,0,1,0,11.62,10.2,10.2,0,0,1-4,4,13,13,0,0,1-11.81,0,10.23,10.23,0,0,1-4-4,12.44,12.44,0,0,1,0-11.64,10.24,10.24,0,0,1,4-4,13,13,0,0,1,11.81,0"/><path class="cls-2" d="M322.67,40.3A9.23,9.23,0,0,1,327.44,39v3.77a7.12,7.12,0,0,0-7.87,6.83V61.3h-3.89V39.15h3.89v4.77a8,8,0,0,1,3.1-3.62"/><polygon class="cls-2" points="345.9 61.3 338.82 50.54 334.51 55.02 334.51 61.3 330.62 61.3 330.62 30.23 334.51 30.23 334.51 50.04 345.23 39.15 349.8 39.15 341.55 47.73 350.59 61.3 345.9 61.3"/><path class="cls-2" d="M363.55,42.71a10.88,10.88,0,0,0-3.16-.5,5.4,5.4,0,0,0-2.83.65,2.17,2.17,0,0,0-1.07,2,2.21,2.21,0,0,0,1.19,2,17.32,17.32,0,0,0,3.62,1.4,28.49,28.49,0,0,1,3.77,1.34,6.69,6.69,0,0,1,2.49,2,6.09,6.09,0,0,1-1.34,8.21,10.12,10.12,0,0,1-5.88,1.63,14.68,14.68,0,0,1-4.79-.8,10.88,10.88,0,0,1-3.92-2.26l1.47-2.85a10.33,10.33,0,0,0,3.41,2,11.32,11.32,0,0,0,4,.75,5.91,5.91,0,0,0,3.1-.71,2.37,2.37,0,0,0,1.17-2.18,2.48,2.48,0,0,0-1.24-2.26,16.77,16.77,0,0,0-3.75-1.51,24.94,24.94,0,0,1-3.62-1.28,6.41,6.41,0,0,1-2.39-1.9,5.13,5.13,0,0,1-1-3.27A5.26,5.26,0,0,1,355,40.53,9.78,9.78,0,0,1,360.68,39a14.13,14.13,0,0,1,4,.57A11.94,11.94,0,0,1,368,41.08l-1.42,3a13.29,13.29,0,0,0-3-1.34"/><path class="cls-2" d="M390.57,41.31a8.66,8.66,0,0,1,2.22,6.3V61.3h-3.89V48.66a5.44,5.44,0,0,0-5.9-5.95,6.59,6.59,0,0,0-5.11,2.18A8,8,0,0,0,376,50.41V61.3h-3.9V30.23H376V43.92q2.22-4.81,8.46-4.9a8.13,8.13,0,0,1,6.11,2.28"/><path class="cls-2" d="M397.38,39.15h3.89V61.3h-3.89ZM401,31a2.69,2.69,0,0,1,0,3.6,2.48,2.48,0,0,1-3.48,0,2.69,2.69,0,0,1,0-3.6A2.48,2.48,0,0,1,401,31"/><path class="cls-2" d="M412.73,40.3A9.23,9.23,0,0,1,417.5,39v3.77a7.12,7.12,0,0,0-7.87,6.83V61.3h-3.89V39.15h3.89v4.77a8,8,0,0,1,3.1-3.62"/><path class="cls-2" d="M437.09,48.74a6.42,6.42,0,0,0-6.87-6.49A7,7,0,0,0,425.35,44,7.39,7.39,0,0,0,423,48.74Zm.88-6.68q2.64,3,2.64,8.44c0,.56,0,1,0,1.26h-17.5a7.54,7.54,0,0,0,2.49,4.73,7.38,7.38,0,0,0,5,1.76,9.37,9.37,0,0,0,3.66-.71,8.83,8.83,0,0,0,3-2l2.13,2.22a11.19,11.19,0,0,1-3.94,2.72,13.1,13.1,0,0,1-5.11,1,11.76,11.76,0,0,1-5.8-1.4,9.84,9.84,0,0,1-3.94-4,12.73,12.73,0,0,1,0-11.62,10.2,10.2,0,0,1,3.91-4A11.3,11.3,0,0,1,430.18,39q5.15,0,7.79,3"/><path class="cls-2" d="M182,87.38a6,6,0,0,0,1.47-4.21A6.09,6.09,0,0,0,182,78.95a5.26,5.26,0,0,0-7.62,0,6.69,6.69,0,0,0,0,8.44,5.33,5.33,0,0,0,7.64,0m7.87-14.84V93a10.11,10.11,0,0,1-1.51,5.55,9.85,9.85,0,0,1-4.23,3.64,14.65,14.65,0,0,1-6.28,1.28,17.15,17.15,0,0,1-5.26-.8,17.7,17.7,0,0,1-4.54-2.18l2.39-4.52a11.81,11.81,0,0,0,7,2.26,6.66,6.66,0,0,0,4.4-1.36,4.53,4.53,0,0,0,1.63-3.66V90.63a7.46,7.46,0,0,1-2.85,2.43,8.87,8.87,0,0,1-3.94.84,9.69,9.69,0,0,1-5.13-1.36,9.16,9.16,0,0,1-3.48-3.83A12.57,12.57,0,0,1,166.83,83a12.09,12.09,0,0,1,1.23-5.59,9.1,9.1,0,0,1,3.48-3.75,9.8,9.8,0,0,1,5.13-1.34,8.61,8.61,0,0,1,3.89.86,8.16,8.16,0,0,1,2.89,2.41V72.54Z"/><path class="cls-2" d="M205.93,89.79a3.76,3.76,0,0,0,1.76-2.43v-2h-5.07a5.07,5.07,0,0,0-2.78.61,2.18,2.18,0,0,0-.9,1.95,2.55,2.55,0,0,0,.94,2.07,3.94,3.94,0,0,0,2.57.77,6.18,6.18,0,0,0,3.48-1m1.8,5.28V92.43a7.22,7.22,0,0,1-2.93,2.18,10.65,10.65,0,0,1-4.15.75A8,8,0,0,1,195,93.41a6.62,6.62,0,0,1-2.09-5.09,6,6,0,0,1,2.24-5,10.14,10.14,0,0,1,6.34-1.82h6.2v-.42a3.41,3.41,0,0,0-1.19-2.78,5.39,5.39,0,0,0-3.5-1,13.93,13.93,0,0,0-6.7,2l-2-4.44a26.84,26.84,0,0,1,5-2,19.82,19.82,0,0,1,5.15-.63q4.52,0,7,2.13A7.53,7.53,0,0,1,214,80.37l0,14.7Z"/><path class="cls-2" d="M227,73.42a9,9,0,0,1,4.4-1.13v6.07a8.79,8.79,0,0,0-1,0,6.66,6.66,0,0,0-4.71,1.61A5.57,5.57,0,0,0,224,84.22V95.07h-6.45V72.54H224V76.6A8.2,8.2,0,0,1,227,73.42"/><path class="cls-2" d="M245.32,89.79a3.76,3.76,0,0,0,1.76-2.43v-2H242a5.07,5.07,0,0,0-2.78.61,2.18,2.18,0,0,0-.9,1.95,2.55,2.55,0,0,0,.94,2.07,3.94,3.94,0,0,0,2.57.77,6.18,6.18,0,0,0,3.48-1m1.8,5.28V92.43a7.22,7.22,0,0,1-2.93,2.18,10.65,10.65,0,0,1-4.14.75,8,8,0,0,1-5.65-1.95,6.63,6.63,0,0,1-2.09-5.09,6,6,0,0,1,2.24-5,10.14,10.14,0,0,1,6.34-1.82h6.2v-.42a3.41,3.41,0,0,0-1.19-2.78,5.38,5.38,0,0,0-3.5-1,13.93,13.93,0,0,0-6.7,2l-2-4.44a26.84,26.84,0,0,1,5-2,19.82,19.82,0,0,1,5.15-.63q4.52,0,7,2.13a7.53,7.53,0,0,1,2.53,5.95l0,14.7Z"/><path class="cls-2" d="M271.48,87.38a6,6,0,0,0,1.47-4.21,6.09,6.09,0,0,0-1.47-4.23,5.26,5.26,0,0,0-7.62,0,6.69,6.69,0,0,0,0,8.44,5.33,5.33,0,0,0,7.64,0m7.87-14.84V93a10.11,10.11,0,0,1-1.51,5.55,9.85,9.85,0,0,1-4.23,3.64,14.65,14.65,0,0,1-6.28,1.28,17.15,17.15,0,0,1-5.26-.8,17.7,17.7,0,0,1-4.54-2.18l2.39-4.52a11.81,11.81,0,0,0,7,2.26,6.66,6.66,0,0,0,4.4-1.36,4.53,4.53,0,0,0,1.63-3.66V90.63a7.45,7.45,0,0,1-2.85,2.43,8.87,8.87,0,0,1-3.94.84A9.69,9.69,0,0,1,261,92.53a9.15,9.15,0,0,1-3.47-3.83A12.56,12.56,0,0,1,256.33,83a12.07,12.07,0,0,1,1.24-5.59A9.09,9.09,0,0,1,261,73.67a9.8,9.8,0,0,1,5.13-1.34,8.61,8.61,0,0,1,3.89.86,8.16,8.16,0,0,1,2.89,2.41V72.54Z"/><path class="cls-2" d="M298.9,82a5.11,5.11,0,0,0-1.42-3.56,4.81,4.81,0,0,0-3.56-1.34,4.9,4.9,0,0,0-3.5,1.32A6.12,6.12,0,0,0,288.64,82Zm3.25-6.49Q305,78.61,305,84.22q0,1,0,1.55H288.77a5.73,5.73,0,0,0,5.82,4.52,7.91,7.91,0,0,0,3.05-.61,8.06,8.06,0,0,0,2.64-1.78l3.39,3.43a11.43,11.43,0,0,1-4.17,3,14,14,0,0,1-5.47,1,13,13,0,0,1-6.22-1.42,10,10,0,0,1-4.1-4,13.17,13.17,0,0,1,0-12,10.26,10.26,0,0,1,4.1-4.06,12.34,12.34,0,0,1,6-1.44q5.44,0,8.27,3.14"/><path class="cls-2" d="M331.15,88.39a7.24,7.24,0,0,0,0-9,5.62,5.62,0,0,0-8.12,0,7.09,7.09,0,0,0,0,9,5.62,5.62,0,0,0,8.12,0m8-24.39V95.07h-6.41V91.76a8,8,0,0,1-3,2.66,9,9,0,0,1-4.1.9A10.66,10.66,0,0,1,320,93.87a9.69,9.69,0,0,1-3.73-4.08A13.39,13.39,0,0,1,315,83.72a13.2,13.2,0,0,1,1.3-6,9.51,9.51,0,0,1,3.68-4,10.51,10.51,0,0,1,5.49-1.42,8.36,8.36,0,0,1,7.29,3.56V64Z"/><path class="cls-2" d="M349.82,79.41a7.18,7.18,0,0,0,0,9,5.66,5.66,0,0,0,8.12,0,7.18,7.18,0,0,0,0-9,5.66,5.66,0,0,0-8.12,0m10.38-5.65a10.28,10.28,0,0,1,4.25,4,12.77,12.77,0,0,1,0,12,10.37,10.37,0,0,1-4.25,4.06,14.56,14.56,0,0,1-12.65,0,10.38,10.38,0,0,1-4.25-4.06,12.77,12.77,0,0,1,0-12,10.29,10.29,0,0,1,4.25-4,14.76,14.76,0,0,1,12.65,0"/><path class="cls-2" d="M376.32,79.41a7.18,7.18,0,0,0,0,9,5.66,5.66,0,0,0,8.12,0,7.18,7.18,0,0,0,0-9,5.66,5.66,0,0,0-8.12,0m10.38-5.65a10.29,10.29,0,0,1,4.25,4,12.77,12.77,0,0,1,0,12,10.38,10.38,0,0,1-4.25,4.06,14.56,14.56,0,0,1-12.65,0,10.38,10.38,0,0,1-4.25-4.06,12.77,12.77,0,0,1,0-12,10.29,10.29,0,0,1,4.25-4,14.76,14.76,0,0,1,12.65,0"/><path class="cls-2" d="M404.85,73.42a8.94,8.94,0,0,1,4.4-1.13v6.07a8.84,8.84,0,0,0-1,0,6.66,6.66,0,0,0-4.71,1.61,5.58,5.58,0,0,0-1.74,4.29V95.07h-6.45V72.54h6.45V76.6a8.2,8.2,0,0,1,3.06-3.18"/><path class="cls-2" d="M423.31,77.54a10.89,10.89,0,0,0-3.22-.56,3.7,3.7,0,0,0-1.88.42,1.36,1.36,0,0,0-.71,1.26,1.56,1.56,0,0,0,1,1.42,18.44,18.44,0,0,0,3.14,1.13,33.34,33.34,0,0,1,3.94,1.4,7.35,7.35,0,0,1,2.68,2.05,5.42,5.42,0,0,1,1.13,3.58,6.07,6.07,0,0,1-2.58,5.21,11,11,0,0,1-6.6,1.86,17.37,17.37,0,0,1-5.32-.82,13.7,13.7,0,0,1-4.44-2.32l2.09-4.35a13.2,13.2,0,0,0,3.83,2.07,12.24,12.24,0,0,0,4,.73,4.21,4.21,0,0,0,2.07-.44,1.42,1.42,0,0,0,.77-1.32,1.67,1.67,0,0,0-1-1.51A16.58,16.58,0,0,0,419,86.19a31.75,31.75,0,0,1-3.83-1.34,6.81,6.81,0,0,1-2.62-2,5.48,5.48,0,0,1-1.09-3.54A6.06,6.06,0,0,1,414,74.09a10.49,10.49,0,0,1,6.36-1.84,16.91,16.91,0,0,1,4.61.65,15.38,15.38,0,0,1,4.19,1.86L427,79.16a18.78,18.78,0,0,0-3.64-1.61"/></svg>